<?xml version="1.0" encoding="UTF-8" standalone="no"?>
<svg
   xmlns:dc="http://purl.org/dc/elements/1.1/"
   xmlns:cc="http://creativecommons.org/ns#"
   xmlns:rdf="http://www.w3.org/1999/02/22-rdf-syntax-ns#"
   xmlns:svg="http://www.w3.org/2000/svg"
   xmlns="http://www.w3.org/2000/svg"
   viewBox="0 0 241.88972 241.88972"
   height="241.88972"
   width="241.88972"
   xml:space="preserve"
   id="svg2"
   version="1.1"><metadata
     id="metadata8"><rdf:RDF><cc:Work
         rdf:about=""><dc:format>image/svg+xml</dc:format><dc:type
           rdf:resource="http://purl.org/dc/dcmitype/StillImage" /></cc:Work></rdf:RDF></metadata><defs
     id="defs6"><clipPath
       id="clipPath20"
       clipPathUnits="userSpaceOnUse"><path
         id="path18"
         d="M 0,0 H 181.4173 V 181.4173 H 0 Z" /></clipPath></defs><g
     transform="matrix(1.3333333,0,0,-1.3333333,0,241.88973)"
     id="g10"><g
       id="g12" /><g
       id="g14"><g
         clip-path="url(#clipPath20)"
         id="g16"><path
           id="path22"
           style="fill:#dbedf8;fill-opacity:1;fill-rule:nonzero;stroke:none"
           d="M 100.1406,15.84044 V 78.27692 L 29.87351,111.2964 V 48.85991 L 100.1406,15.84044" /><g
           transform="matrix(1,0,0,-1,0,181.4173)"
           id="g24"><path
             id="path26"
             style="fill:none;stroke:#009bd8;stroke-width:8;stroke-linecap:butt;stroke-linejoin:round;stroke-miterlimit:10;stroke-dasharray:none;stroke-opacity:1"
             d="M 100.1406,165.5769 V 103.1404 L 29.87351,70.12092 v 62.43648 l 70.26709,33.0195" /></g><path
           id="path28"
           style="fill:#dbedf8;fill-opacity:1;fill-rule:nonzero;stroke:none"
           d="M 87.28693,162.3736 157.554,129.3541 V 66.91762 l -57.4134,-51.0772 v 62.4365 L 29.87352,111.2964 Z" /><g
           transform="matrix(1,0,0,-1,0,181.4173)"
           id="g30"><path
             id="path32"
             style="fill:none;stroke:#009bd8;stroke-width:8;stroke-linecap:butt;stroke-linejoin:round;stroke-miterlimit:10;stroke-dasharray:none;stroke-opacity:1"
             d="m 87.28693,19.04371 70.26707,33.0195 v 62.43649 l -57.4134,51.0772 V 103.1404 L 29.87352,70.12092 Z" /></g><path
           id="path34"
           style="fill:#ff2600;fill-opacity:1;fill-rule:nonzero;stroke:none"
           d="m 88.50861,15.84047 c 0,6.41821 5.21366,11.63188 11.63199,11.63188 6.4183,0 11.6319,-5.21367 11.6319,-11.63188 0,-6.418381 -5.2136,-11.631974 -11.6319,-11.631974 -6.41833,0 -11.63199,5.213593 -11.63199,11.631974 z" /><g
           transform="matrix(1,0,0,-1,0,181.4173)"
           id="g36"><path
             id="path38"
             style="fill:none;stroke:#feffff;stroke-width:2;stroke-linecap:butt;stroke-linejoin:miter;stroke-miterlimit:10;stroke-dasharray:none;stroke-opacity:1"
             d="m 88.50861,165.5769 c 0,-6.4183 5.21366,-11.6319 11.63199,-11.6319 6.4183,0 11.6319,5.2136 11.6319,11.6319 0,6.4183 -5.2136,11.6319 -11.6319,11.6319 -6.41833,0 -11.63199,-5.2136 -11.63199,-11.6319 z" /></g><g
           transform="matrix(1,0,0,-1,0,181.4173)"
           id="g40"><path
             id="path42"
             style="fill:none;stroke:#009bd8;stroke-width:8;stroke-linecap:butt;stroke-linejoin:miter;stroke-miterlimit:10;stroke-dasharray:none;stroke-opacity:1"
             d="M 100.1406,103.1404 157.554,52.06321" /></g></g></g></g></svg>